<svg width="112" height="112" viewBox="0 0 112 112" fill="none" xmlns="http://www.w3.org/2000/svg">
<path d="M25.7795 98.0602C27.7618 98.0602 29.4223 97.3857 30.7609 96.0368C32.1042 94.6926 32.7758 93.0252 32.7758 91.0346V20.7794C32.7758 18.7889 32.1042 17.1191 30.7609 15.7702C29.4223 14.426 27.7618 13.7539 25.7795 13.7539C23.7972 13.7539 22.1368 14.426 20.7982 15.7702C19.4549 17.1191 18.7832 18.7889 18.7832 20.7794V91.0346C18.7832 93.0252 19.4549 94.6926 20.7982 96.0368C22.1368 97.3857 23.7972 98.0602 25.7795 98.0602ZM82.6494 90.859C84.9815 92.4983 87.3719 92.6154 89.8206 91.2103C92.2693 89.8052 93.4937 87.6975 93.4937 84.8873V26.9267C93.4937 24.1165 92.2693 22.037 89.8206 20.6881C87.3719 19.3439 84.9815 19.4329 82.6494 20.955L39.2724 50.111C37.1735 51.5161 36.1241 53.4481 36.1241 55.907C36.1241 58.3659 37.1735 60.298 39.2724 61.7031L82.6494 90.859Z" fill="var(--theme-accent-3)"/>
</svg>
