<svg width="112" height="112" viewBox="0 0 112 112" fill="none" xmlns="http://www.w3.org/2000/svg">
<path d="M86.2205 98.0602C84.2382 98.0602 82.5777 97.3857 81.2391 96.0368C79.8958 94.6926 79.2242 93.0252 79.2242 91.0346V20.7794C79.2242 18.7889 79.8958 17.1191 81.2391 15.7702C82.5777 14.426 84.2382 13.7539 86.2205 13.7539C88.2028 13.7539 89.8632 14.426 91.2018 15.7702C92.5451 17.1191 93.2168 18.7889 93.2168 20.7794V91.0346C93.2168 93.0252 92.5451 94.6926 91.2018 96.0368C89.8632 97.3857 88.2028 98.0602 86.2205 98.0602ZM29.3506 90.859C27.0185 92.4983 24.6281 92.6154 22.1794 91.2103C19.7307 89.8052 18.5063 87.6975 18.5063 84.8873V26.9267C18.5063 24.1165 19.7307 22.037 22.1794 20.6881C24.6281 19.3439 27.0185 19.4329 29.3506 20.955L72.7276 50.111C74.8265 51.5161 75.8759 53.4481 75.8759 55.907C75.8759 58.3659 74.8265 60.298 72.7276 61.7031L29.3506 90.859Z" fill="white"/>
</svg>
