<svg width="96" height="96" viewBox="0 0 96 96" fill="none" xmlns="http://www.w3.org/2000/svg">
<g clip-path="url(#clip0_13_1016)">
<path d="M48 8C25.92 8 8 25.92 8 48C8 70.08 25.92 88 48 88C70.08 88 88 70.08 88 48C88 25.92 70.08 8 48 8ZM64 52H52V64C52 66.2 50.2 68 48 68C45.8 68 44 66.2 44 64V52H32C29.8 52 28 50.2 28 48C28 45.8 29.8 44 32 44H44V32C44 29.8 45.8 28 48 28C50.2 28 52 29.8 52 32V44H64C66.2 44 68 45.8 68 48C68 50.2 66.2 52 64 52Z" fill="#6AB417"/>
<path d="M64 52H52V64C52 66.2 50.2 68 48 68C45.8 68 44 66.2 44 64V52H32C29.8 52 28 50.2 28 48C28 45.8 29.8 44 32 44H44V32C44 29.8 45.8 28 48 28C50.2 28 52 29.8 52 32V44H64C66.2 44 68 45.8 68 48C68 50.2 66.2 52 64 52Z" fill="#6AB417"/>
<path d="M64 52H52V64C52 66.2 50.2 68 48 68C45.8 68 44 66.2 44 64V52H32C29.8 52 28 50.2 28 48C28 45.8 29.8 44 32 44H44V32C44 29.8 45.8 28 48 28C50.2 28 52 29.8 52 32V44H64C66.2 44 68 45.8 68 48C68 50.2 66.2 52 64 52Z" fill="#313131"/>
</g>
<defs>
<clipPath id="clip0_13_1016">
<rect width="96" height="96" fill="white"/>
</clipPath>
</defs>
</svg>
