<svg width="106" height="97" viewBox="0 0 106 97" fill="none" xmlns="http://www.w3.org/2000/svg">
<path d="M58.005 89C62.5006 89 66.1788 85.3077 66.1788 80.7949H49.8313C49.8313 85.3077 53.4686 89 58.005 89ZM82.5263 64.3846V43.8718C82.5263 31.2769 75.8238 20.7333 64.1354 17.9436V15.1538C64.1354 11.7487 61.3972 9 58.005 9C54.6129 9 51.8747 11.7487 51.8747 15.1538V17.9436C40.1454 20.7333 33.4837 31.2359 33.4837 43.8718V64.3846L28.2117 69.6769C25.6369 72.2615 27.4352 76.6923 31.0725 76.6923H84.8967C88.534 76.6923 90.3731 72.2615 87.7984 69.6769L82.5263 64.3846Z" fill="#024ACA"/>
<circle cx="29.7817" cy="30.046" r="24.6264" fill="#E03C28" stroke="#313131" stroke-width="9"/>
<path d="M23.7574 37.9196V35.5046L29.9674 29.6396C30.4581 29.1949 30.8184 28.7962 31.0484 28.4436C31.2784 28.0909 31.4317 27.7689 31.5084 27.4776C31.6004 27.1862 31.6464 26.9179 31.6464 26.6726C31.6464 26.0286 31.4241 25.5379 30.9794 25.2006C30.5501 24.8479 29.9137 24.6716 29.0704 24.6716C28.3957 24.6716 27.7671 24.8019 27.1844 25.0626C26.6171 25.3232 26.1341 25.7296 25.7354 26.2816L23.0214 24.5336C23.6347 23.6136 24.4934 22.8852 25.5974 22.3486C26.7014 21.8119 27.9741 21.5436 29.4154 21.5436C30.6114 21.5436 31.6541 21.7429 32.5434 22.1416C33.4481 22.5249 34.1457 23.0692 34.6364 23.7746C35.1424 24.4799 35.3954 25.3232 35.3954 26.3046C35.3954 26.8259 35.3264 27.3472 35.1884 27.8686C35.0657 28.3746 34.8051 28.9112 34.4064 29.4786C34.0231 30.0459 33.4557 30.6822 32.7044 31.3876L27.5524 36.2406L26.8394 34.8836H35.9244V37.9196H23.7574Z" fill="white"/>
</svg>
