<svg width="96" height="96" viewBox="0 0 96 96" fill="none" xmlns="http://www.w3.org/2000/svg">
<g clip-path="url(#clip0_100_508)">
<path d="M78.5847 51.9167C78.756 50.6667 78.8417 49.375 78.8417 48C78.8417 46.6667 78.756 45.3333 78.5419 44.0833L87.2375 37.5C88.0086 36.9167 88.2227 35.7917 87.7516 34.9583L79.5271 21.125C79.0131 20.2083 77.9422 19.9167 76.9998 20.2083L66.762 24.2083C64.6203 22.625 62.35 21.2917 59.8227 20.2917L58.2806 9.70833C58.1092 8.70833 57.2525 8 56.2245 8H39.7755C38.7475 8 37.9336 8.70833 37.7623 9.70833L36.2202 20.2917C33.6929 21.2917 31.3797 22.6667 29.2808 24.2083L19.043 20.2083C18.1007 19.875 17.0298 20.2083 16.5157 21.125L8.33412 34.9583C7.82009 35.8333 7.99143 36.9167 8.84815 37.5L17.5438 44.0833C17.3296 45.3333 17.1583 46.7083 17.1583 48C17.1583 49.2917 17.2439 50.6667 17.4581 51.9167L8.76248 58.5C7.99143 59.0833 7.77726 60.2083 8.24845 61.0417L16.4729 74.875C16.9869 75.7917 18.0578 76.0833 19.0002 75.7917L29.238 71.7917C31.3797 73.375 33.65 74.7083 36.1773 75.7083L37.7194 86.2917C37.9336 87.2917 38.7475 88 39.7755 88H56.2245C57.2525 88 58.1092 87.2917 58.2377 86.2917L59.7798 75.7083C62.3071 74.7083 64.6203 73.375 66.7192 71.7917L76.957 75.7917C77.8993 76.125 78.9702 75.7917 79.4843 74.875L87.7087 61.0417C88.2227 60.125 88.0086 59.0833 87.1947 58.5L78.5847 51.9167ZM48 63C39.5185 63 32.5791 56.25 32.5791 48C32.5791 39.75 39.5185 33 48 33C56.4815 33 63.4209 39.75 63.4209 48C63.4209 56.25 56.4815 63 48 63Z" fill="#024ACA"/>
</g>
<defs>
<clipPath id="clip0_100_508">
<rect width="96" height="96" fill="white"/>
</clipPath>
</defs>
</svg>
